<svg width="34" height="34" viewBox="0 0 34 34" fill="none" xmlns="http://www.w3.org/2000/svg">
<path d="M0.124939 18.4062C0.400773 21.6125 1.58661 24.6734 3.54295 27.2287C5.49928 29.784 8.14472 31.7274 11.168 32.8303C14.1913 33.9331 17.4668 34.1496 20.6089 33.4542C23.7511 32.7588 26.6293 31.1804 28.9049 28.9048C31.1805 26.6292 32.7588 23.751 33.4542 20.6089C34.1496 17.4667 33.9332 14.1913 32.8303 11.168C31.7274 8.14469 29.784 5.49925 27.2287 3.54292C24.6734 1.58659 21.6125 0.400746 18.4062 0.124912C17.9089 0.083472 17.4155 0.241273 17.0346 0.563601C16.6537 0.88593 16.4164 1.34638 16.3749 1.84366C16.3335 2.34094 16.4913 2.83432 16.8136 3.21525C17.136 3.59619 17.5964 3.83347 18.0937 3.87491C20.5884 4.08886 22.9702 5.01094 24.9586 6.53266C26.947 8.05438 28.4594 10.1124 29.3178 12.4646C30.1762 14.8167 30.3449 17.3651 29.804 19.8099C29.2631 22.2547 28.0352 24.4941 26.2647 26.2646C24.4941 28.0352 22.2547 29.2631 19.8099 29.804C17.3652 30.3449 14.8168 30.1762 12.4646 29.3178C10.1124 28.4594 8.0544 26.947 6.53269 24.9586C5.01097 22.9701 4.08888 20.5884 3.87494 18.0937C3.85442 17.8474 3.78561 17.6077 3.67242 17.388C3.55924 17.1684 3.4039 16.9732 3.21528 16.8136C3.02666 16.654 2.80845 16.5331 2.57311 16.4578C2.33778 16.3826 2.08992 16.3544 1.84369 16.3749C1.59746 16.3954 1.35768 16.4642 1.13805 16.5774C0.918417 16.6906 0.72323 16.846 0.563629 17.0346C0.404028 17.2232 0.283141 17.4414 0.20787 17.6767C0.1326 17.9121 0.10442 18.1599 0.124939 18.4062ZM18.8749 8.87491V16.9999C18.8749 17.4972 18.6774 17.9741 18.3258 18.3257C17.9741 18.6774 17.4972 18.8749 16.9999 18.8749H8.87494C8.37766 18.8749 7.90075 18.6774 7.54912 18.3257C7.19749 17.9741 6.99994 17.4972 6.99994 16.9999C6.99994 16.5026 7.19749 16.0257 7.54912 15.6741C7.90075 15.3225 8.37766 15.1249 8.87494 15.1249H15.1249V8.87491C15.1249 8.37763 15.3225 7.90072 15.6741 7.54909C16.0257 7.19746 16.5027 6.99991 16.9999 6.99991C17.4972 6.99991 17.9741 7.19746 18.3258 7.54909C18.6774 7.90072 18.8749 8.37763 18.8749 8.87491ZM4.49994 11.9999C4.00549 11.9999 3.52214 11.8533 3.11101 11.5786C2.69989 11.3039 2.37946 10.9134 2.19024 10.4566C2.00102 9.9998 1.95151 9.49714 2.04798 9.01219C2.14444 8.52723 2.38254 8.08178 2.73217 7.73215C3.08181 7.38251 3.52726 7.14441 4.01221 7.04795C4.49717 6.95149 4.99983 7.00099 5.45665 7.19021C5.91347 7.37943 6.30391 7.69986 6.57861 8.11099C6.85332 8.52211 6.99994 9.00546 6.99994 9.49991C6.99994 10.163 6.73655 10.7988 6.26771 11.2677C5.79886 11.7365 5.16298 11.9999 4.49994 11.9999ZM9.49994 6.99991C9.00549 6.99991 8.52214 6.85329 8.11101 6.57859C7.69989 6.30388 7.37946 5.91344 7.19024 5.45662C7.00102 4.99981 6.95151 4.49714 7.04798 4.01219C7.14444 3.52723 7.38254 3.08178 7.73217 2.73214C8.08181 2.38251 8.52726 2.14441 9.01221 2.04795C9.49717 1.95149 9.99983 2.00099 10.4566 2.19021C10.9135 2.37943 11.3039 2.69986 11.5786 3.11099C11.8533 3.52211 11.9999 4.00546 11.9999 4.49991C11.9999 5.16295 11.7365 5.79884 11.2677 6.26768C10.7989 6.73652 10.163 6.99991 9.49994 6.99991Z" fill="white"/>
</svg>
