<svg width="513" height="513" viewBox="0 0 513 513" fill="none" xmlns="http://www.w3.org/2000/svg">
<g clip-path="url(#clip0_18_687)">
<path d="M512.904 256.497C512.904 115.097 398.304 0.497208 256.904 0.497208C115.504 0.497208 0.903564 115.097 0.903564 256.497C0.903564 384.287 94.4636 490.197 216.924 509.407V330.557H151.974V256.497H216.924V200.107C216.924 135.997 255.074 100.517 313.574 100.517C341.624 100.517 370.944 105.567 370.944 105.567V168.547H338.684C306.844 168.547 297.024 188.327 297.024 208.527V256.497H368.004L356.644 330.557H297.024V509.407C419.344 490.197 512.904 384.287 512.904 256.497Z" fill="#1877F2"/>
<path d="M356.493 330.557L367.863 256.497H296.884V208.527C296.884 188.327 306.844 168.547 338.544 168.547H370.803V105.567C370.803 105.567 341.484 100.517 313.434 100.517C254.944 100.517 216.784 136.007 216.784 200.107V256.497H151.833V330.557H216.784V509.407C229.834 511.507 243.154 512.497 256.764 512.497C270.374 512.497 283.693 511.377 296.743 509.407V330.557H356.493Z" fill="white"/>
</g>
<defs>
<clipPath id="clip0_18_687">
<rect width="512" height="512" fill="white" transform="translate(0.903564 0.497208)"/>
</clipPath>
</defs>
</svg>
