<svg width="70" height="70" viewBox="0 0 64 64" fill='none' xmlns="http://www.w3.org/2000/svg">
<path d="M32 0C14.3 0 0 14.337 0 32C0 49.7 14.337 64 32 64C49.7 64 64 49.663 64 32C64 14.337 49.663 0 32 0ZM46.68 46.184C46.107 47.14 44.883 47.407 43.927 46.834C36.395 42.246 26.952 41.214 15.787 43.737C14.717 43.967 13.647 43.317 13.417 42.247C13.187 41.177 13.837 40.107 14.907 39.877C27.103 37.087 37.577 38.271 45.989 43.433C46.2156 43.568 46.4132 43.7464 46.5706 43.9581C46.7279 44.1698 46.8419 44.4105 46.9058 44.6664C46.9697 44.9222 46.9825 45.1882 46.9432 45.449C46.9039 45.7098 46.8135 45.9603 46.677 46.186L46.68 46.184ZM50.58 37.467C49.854 38.652 48.324 38.997 47.14 38.307C38.538 33.031 25.424 31.502 15.255 34.56C13.917 34.942 12.541 34.216 12.158 32.916C11.776 31.578 12.502 30.202 13.84 29.819C25.462 26.302 39.914 27.984 49.816 34.063C50.963 34.751 51.306 36.28 50.581 37.466L50.58 37.467ZM50.924 28.367C40.601 22.25 23.588 21.677 13.724 24.659C12.156 25.156 10.474 24.239 9.977 22.671C9.48 21.103 10.397 19.421 11.965 18.924C23.282 15.484 42.092 16.171 53.945 23.206C55.36 24.046 55.818 25.882 54.977 27.296C54.212 28.749 52.339 29.208 50.924 28.366V28.367Z" fill='#fff'/>
</svg>
